<svg width="236" height="40" viewBox="0 0 236 40" fill="none" xmlns="http://www.w3.org/2000/svg">
<g clip-path="url(#clip0)">
<rect width="236" height="40" fill="none"/>
<g style="mix-blend-mode:darken" filter="url(#filter0_d)">
<path d="M22.7191 13.6602H16.0687V32H12.392V13.6602H5.80019V10.6719H22.7191V13.6602ZM32.874 32H29.3145V16.1504H32.874V32ZM29.0947 12.0342C29.0947 11.4873 29.2656 11.0332 29.6074 10.6719C29.959 10.3105 30.457 10.1299 31.1016 10.1299C31.7461 10.1299 32.2441 10.3105 32.5957 10.6719C32.9473 11.0332 33.123 11.4873 33.123 12.0342C33.123 12.5713 32.9473 13.0205 32.5957 13.3818C32.2441 13.7334 31.7461 13.9092 31.1016 13.9092C30.457 13.9092 29.959 13.7334 29.6074 13.3818C29.2656 13.0205 29.0947 12.5713 29.0947 12.0342ZM45.1236 12.2979V16.1504H47.9215V18.7871H45.1236V27.6348C45.1236 28.2402 45.2408 28.6797 45.4752 28.9531C45.7193 29.2168 46.149 29.3486 46.7643 29.3486C47.1744 29.3486 47.5895 29.2998 48.0094 29.2021V31.9561C47.1988 32.1807 46.4176 32.293 45.6656 32.293C42.9312 32.293 41.5641 30.7842 41.5641 27.7666V18.7871H38.9566V16.1504H41.5641V12.2979H45.1236ZM64.0236 32C63.8674 31.6973 63.7307 31.2041 63.6135 30.5205C62.4807 31.7021 61.0939 32.293 59.4533 32.293C57.8615 32.293 56.5627 31.8389 55.5568 30.9307C54.551 30.0225 54.048 28.8994 54.048 27.5615C54.048 25.8721 54.673 24.5781 55.923 23.6797C57.1828 22.7715 58.9797 22.3174 61.3137 22.3174H63.4963V21.2773C63.4963 20.457 63.2668 19.8027 62.8078 19.3145C62.3488 18.8164 61.6506 18.5674 60.7131 18.5674C59.9025 18.5674 59.2385 18.7725 58.7209 19.1826C58.2033 19.583 57.9445 20.0957 57.9445 20.7207H54.385C54.385 19.8516 54.673 19.041 55.2492 18.2891C55.8254 17.5273 56.6066 16.9316 57.593 16.502C58.5891 16.0723 59.6975 15.8574 60.9182 15.8574C62.7736 15.8574 64.2531 16.3262 65.3566 17.2637C66.4602 18.1914 67.0266 19.5 67.0559 21.1895V28.3379C67.0559 29.7637 67.2561 30.9014 67.6564 31.751V32H64.0236ZM60.1125 29.4365C60.8156 29.4365 61.4748 29.2656 62.09 28.9238C62.715 28.582 63.1838 28.123 63.4963 27.5469V24.5586H61.5773C60.259 24.5586 59.2678 24.7881 58.6037 25.2471C57.9396 25.7061 57.6076 26.3555 57.6076 27.1953C57.6076 27.8789 57.8322 28.4258 58.2814 28.8359C58.7404 29.2363 59.3508 29.4365 60.1125 29.4365ZM78.1922 17.8789C79.3543 16.5312 80.824 15.8574 82.6014 15.8574C85.9803 15.8574 87.6941 17.7861 87.743 21.6436V32H84.1834V21.7754C84.1834 20.6816 83.9441 19.9102 83.4656 19.4609C82.9969 19.002 82.3035 18.7725 81.3855 18.7725C79.9598 18.7725 78.8953 19.4072 78.1922 20.6768V32H74.6326V9.5H78.1922V17.8789Z" fill="black" fill-opacity="0.87"/>
<path d="M109.38 32H105.688V10.6719H109.38V32ZM131.4 24.2363C131.4 26.6973 130.848 28.6553 129.745 30.1104C128.651 31.5654 127.142 32.293 125.218 32.293C123.363 32.293 121.918 31.624 120.882 30.2861L120.707 32H117.484V9.5H121.044V17.6738C122.069 16.4629 123.451 15.8574 125.189 15.8574C127.123 15.8574 128.641 16.5752 129.745 18.0107C130.848 19.4463 131.4 21.4531 131.4 24.0312V24.2363ZM127.84 23.9287C127.84 22.21 127.538 20.9209 126.932 20.0615C126.327 19.2021 125.448 18.7725 124.296 18.7725C122.753 18.7725 121.669 19.4463 121.044 20.7939V27.3271C121.678 28.7041 122.772 29.3926 124.325 29.3926C125.438 29.3926 126.297 28.9775 126.903 28.1475C127.508 27.3174 127.821 26.0625 127.84 24.3828V23.9287ZM146.594 19.4023C146.125 19.3242 145.642 19.2852 145.144 19.2852C143.513 19.2852 142.414 19.9102 141.848 21.1602V32H138.288V16.1504H141.687L141.775 17.9229C142.634 16.5459 143.825 15.8574 145.349 15.8574C145.857 15.8574 146.277 15.9258 146.609 16.0625L146.594 19.4023ZM161.773 32C161.617 31.6973 161.48 31.2041 161.363 30.5205C160.23 31.7021 158.844 32.293 157.203 32.293C155.611 32.293 154.312 31.8389 153.306 30.9307C152.301 30.0225 151.798 28.8994 151.798 27.5615C151.798 25.8721 152.423 24.5781 153.673 23.6797C154.932 22.7715 156.729 22.3174 159.063 22.3174H161.246V21.2773C161.246 20.457 161.016 19.8027 160.557 19.3145C160.098 18.8164 159.4 18.5674 158.463 18.5674C157.652 18.5674 156.988 18.7725 156.471 19.1826C155.953 19.583 155.694 20.0957 155.694 20.7207H152.135C152.135 19.8516 152.423 19.041 152.999 18.2891C153.575 17.5273 154.356 16.9316 155.343 16.502C156.339 16.0723 157.447 15.8574 158.668 15.8574C160.523 15.8574 162.003 16.3262 163.106 17.2637C164.21 18.1914 164.776 19.5 164.805 21.1895V28.3379C164.805 29.7637 165.006 30.9014 165.406 31.751V32H161.773ZM157.862 29.4365C158.565 29.4365 159.224 29.2656 159.84 28.9238C160.465 28.582 160.933 28.123 161.246 27.5469V24.5586H159.327C158.009 24.5586 157.017 24.7881 156.353 25.2471C155.689 25.7061 155.357 26.3555 155.357 27.1953C155.357 27.8789 155.582 28.4258 156.031 28.8359C156.49 29.2363 157.1 29.4365 157.862 29.4365ZM175.942 17.8789C177.104 16.5312 178.574 15.8574 180.351 15.8574C183.73 15.8574 185.444 17.7861 185.493 21.6436V32H181.933V21.7754C181.933 20.6816 181.694 19.9102 181.215 19.4609C180.746 19.002 180.053 18.7725 179.135 18.7725C177.709 18.7725 176.645 19.4072 175.942 20.6768V32H172.382V9.5H175.942V17.8789ZM196.79 32H193.23V16.1504H196.79V32ZM193.011 12.0342C193.011 11.4873 193.182 11.0332 193.523 10.6719C193.875 10.3105 194.373 10.1299 195.018 10.1299C195.662 10.1299 196.16 10.3105 196.512 10.6719C196.863 11.0332 197.039 11.4873 197.039 12.0342C197.039 12.5713 196.863 13.0205 196.512 13.3818C196.16 13.7334 195.662 13.9092 195.018 13.9092C194.373 13.9092 193.875 13.7334 193.523 13.3818C193.182 13.0205 193.011 12.5713 193.011 12.0342ZM207.926 16.1504L208.029 17.8057C209.142 16.5068 210.666 15.8574 212.599 15.8574C214.718 15.8574 216.169 16.668 216.95 18.2891C218.102 16.668 219.723 15.8574 221.813 15.8574C223.561 15.8574 224.86 16.3408 225.71 17.3076C226.569 18.2744 227.008 19.7002 227.028 21.585V32H223.468V21.6875C223.468 20.6816 223.249 19.9443 222.809 19.4756C222.37 19.0068 221.642 18.7725 220.627 18.7725C219.816 18.7725 219.152 18.9922 218.634 19.4316C218.127 19.8613 217.77 20.4277 217.565 21.1309L217.58 32H214.02V21.5703C213.971 19.7051 213.019 18.7725 211.164 18.7725C209.738 18.7725 208.727 19.3535 208.131 20.5156V32H204.572V16.1504H207.926Z" fill="#EDB74B" fill-opacity="0.87"/>
</g>
</g>
<defs>
<filter id="filter0_d" x="1.80017" y="9.5" width="229.228" height="30.793" filterUnits="userSpaceOnUse" color-interpolation-filters="sRGB">
<feFlood flood-opacity="0" result="BackgroundImageFix"/>
<feColorMatrix in="SourceAlpha" type="matrix" values="0 0 0 0 0 0 0 0 0 0 0 0 0 0 0 0 0 0 127 0"/>
<feOffset dy="4"/>
<feGaussianBlur stdDeviation="2"/>
<feColorMatrix type="matrix" values="0 0 0 0 0 0 0 0 0 0 0 0 0 0 0 0 0 0 0.15 0"/>
<feBlend mode="normal" in2="BackgroundImageFix" result="effect1_dropShadow"/>
<feBlend mode="normal" in="SourceGraphic" in2="effect1_dropShadow" result="shape"/>
</filter>
<clipPath id="clip0">
<rect width="236" height="40" fill="white"/>
</clipPath>
</defs>
</svg>
